<svg id="Ebene_1" data-name="Ebene 1" xmlns="http://www.w3.org/2000/svg" viewBox="0 0 250 250"><defs><style>.cls-1{fill:#080707;}.cls-2{fill:#6e411d;}.cls-3{fill:#4f3015;}.cls-4{fill:#6c401d;}.cls-5{fill:#fefefe;}</style></defs><path class="cls-1" d="M216.45,117.82a48.11,48.11,0,0,0-5.39-3.54,19.82,19.82,0,0,0-10.41-2.51c-.26,0-.52,0-.77,0a1.29,1.29,0,0,0-1.09,1c-.13.51.31.77.66,1,1.14.77,2.3,1.51,3.43,2.3a14.45,14.45,0,0,1,3.11,2.82c-1.59.24-3,.47-4.42.67a8.14,8.14,0,0,0-1.76.39c-1.75.66-2.12,1.74-1.11,3.31.24.36.51.7.78,1,.73.91,1.44,1.83,2.2,2.71a9.43,9.43,0,0,1,1.81,9.55c-1,3-1.84,6-2.53,9.07a117.27,117.27,0,0,0-2.5,17.5,60.21,60.21,0,0,1-.44,6.44,6.31,6.31,0,0,1-.77,2.18A45.91,45.91,0,0,0,192,187.21a21.74,21.74,0,0,1-.62,2.77c-.41,1.3-1.14,1.67-2.23.94a16.13,16.13,0,0,0-5.56-2.25c-1.39-.31-1.6-.86-1-2.16s1.51-2.81,2.28-4.2a26.72,26.72,0,0,0,2-4.45,11.1,11.1,0,0,0-.43-7.58,1,1,0,0,0-1.89-.25,33.35,33.35,0,0,1-2.41,3,13.44,13.44,0,0,1-3.54,2.78,4,4,0,0,1-3.11.44,2.88,2.88,0,0,1-1.61-1.23,1.66,1.66,0,0,1,.09-2.14,5.62,5.62,0,0,1,1.15-1,14.29,14.29,0,0,0,5.45-7.34,24.44,24.44,0,0,1,1.69-3.9,10,10,0,0,1,9-5.37l.52,0a4,4,0,0,0,4.09-4,72.35,72.35,0,0,1,1.28-8.68c.28-1.26.57-2.52.91-3.76a9.17,9.17,0,0,0-1-7.34,15.27,15.27,0,0,0-2.41-3.22c-.53,3.47.79,6.64.9,10.13a9,9,0,0,1-2-2.88c-.58-1.3-1.07-2.63-1.61-3.95a13.73,13.73,0,0,0-2-3.76,36.88,36.88,0,0,1-9.22,15.39,1.9,1.9,0,0,0,1.68.74,13.34,13.34,0,0,0,1.67-.19,3.72,3.72,0,0,1,1.41,0c.38.07.83.18,1,.54s-.31.64-.55.92c-.05.06-.09.14-.16.24l1.12.28a1.9,1.9,0,0,1,1.14.79c.3.47.12.86-.42.94a1.45,1.45,0,0,1-.51,0,9.08,9.08,0,0,0-4.33.39,47.5,47.5,0,0,0-4.72,1.79,2.5,2.5,0,0,0,1.5,1.56c.58.29,1.18.52,1.75.83a3,3,0,0,1,1.69,2.24,2.27,2.27,0,0,1-1.39-.57,10.25,10.25,0,0,0-4.42-1.3A3.14,3.14,0,0,0,174,154a9,9,0,0,0-.79,1.76A24,24,0,0,1,162.87,169a39.88,39.88,0,0,1-6.52,3.38,3.25,3.25,0,0,0-1.26.63,11.86,11.86,0,0,0,3,2.6c1.76,1.16,3.52,2.33,5.22,3.59a43.71,43.71,0,0,1,8.68,8.61c.56.73.56.74-.31,1.55l-2-2c-2.32-2.31-4.66-4.6-7-6.94a10.46,10.46,0,0,0-7.63-3.22c-.72,0-1.44,0-2.24,0a10.35,10.35,0,0,0,1.27,3.63,21.33,21.33,0,0,1,2.13,5.38c0,.17,0,.34.05.58a4.25,4.25,0,0,1-1.55-1c-1.33-1-2.5-2.24-3.73-3.39a20.3,20.3,0,0,0-3.33-2.65,2.76,2.76,0,0,0-1.35-.57,5.52,5.52,0,0,0,.32,3.12c.32.93.72,1.84,1.07,2.76a10.34,10.34,0,0,1,.8,3.76c-.46.06-.61-.32-.82-.55a43.72,43.72,0,0,1-3.49-4.65,36.91,36.91,0,0,0-3.47-4.5c-.38-.4-.78-.78-1.16-1.15-.41.27-.27.6-.28.88q-.63,11.87-1.23,23.75c-.11,2.23-.21,4.47-.24,6.71-.06,4.58,3.71,9,8.4,10a11.15,11.15,0,0,0,3.46.14c4.84-.5,9.65-1.3,14.52-1.57a20.63,20.63,0,0,1,7.54.61,13.11,13.11,0,0,1,8.08,7.5c1,2.22.47,4-1.61,5.68a26.12,26.12,0,0,1-10.11,5c-6,1.41-11.7.35-17.19-2.24a29.55,29.55,0,0,1-8.07-5.51,15.72,15.72,0,0,0-10.3-4.49,12.76,12.76,0,0,1-3.19-.42c-1.49-.48-1.91-1.24-1.53-2.74a9.34,9.34,0,0,1,.9-2.14,45.71,45.71,0,0,0,4.87-17.27,116.69,116.69,0,0,0,.4-14.72A9,9,0,0,0,132,182a1.59,1.59,0,0,0-1.72-.62,1.47,1.47,0,0,0-1.1,1.43,4.45,4.45,0,0,0-.13.89c.05,2.16-.41,4.29-.37,6.45a15.72,15.72,0,0,1-.25,2.1,10.33,10.33,0,0,1-1-3.53,14.27,14.27,0,0,0-1.08-3.84,3.24,3.24,0,0,0-.93-1.29,2.61,2.61,0,0,0-.61,1.74,12.87,12.87,0,0,0,.16,2.84,10.23,10.23,0,0,1,0,2.83,5.88,5.88,0,0,1-1.39-1.91c-.59-1.05-1.1-2.15-1.68-3.2a6.33,6.33,0,0,0-2.47-2.58c-.32-.17-.65-.46-1.06-.15a1.19,1.19,0,0,0-.43,1.14q.33,9.1.65,18.21c.1,2.84.13,5.69.29,8.52a18.7,18.7,0,0,0,2.78,9.17c1.47,2.33.67,4.53-2,5.39-3,1-6.06,1.95-9.06,3-6,2.13-12,4.42-18.19,6.18a42.72,42.72,0,0,1-6.78,1.57,12.26,12.26,0,0,1-9.46-2.56,8.06,8.06,0,0,1-1.84-11.18,15.37,15.37,0,0,1,8.84-6.55,15.73,15.73,0,0,1,8.66-.15c3.63.93,7.24,1.9,10.92,2.58a12.07,12.07,0,0,0,5.38-.08,7.14,7.14,0,0,0,5-4.32,12,12,0,0,0,.89-4.92,187.27,187.27,0,0,0-1.5-20.36,1.73,1.73,0,0,0-.27-1c-1,.95-.2,2.75-1.74,3.49a2.41,2.41,0,0,1-.36-1.47,25.27,25.27,0,0,1,.38-3.58,4.45,4.45,0,0,0,.11-1,.74.74,0,0,0-.51-.68,1.56,1.56,0,0,0-2.36,1.54c0,2.58,0,5.17,0,7.75v1.36a2.25,2.25,0,0,1-1.47-2.45c0-2.45.06-4.91.08-7.36a4.56,4.56,0,0,0,0-.64c-.13-.84-.53-1.24-1.22-1.26s-1,.31-1.24,1.09-.34,1.51-.48,2.28c-.22,1.14-.42,2.28-.62,3.43a4.87,4.87,0,0,1-2.21,3.67,6.24,6.24,0,0,1,.24-3,7.37,7.37,0,0,1,.56-1.72,13.32,13.32,0,0,0,.94-5.29,2.54,2.54,0,0,0,0-.39.85.85,0,0,0-.62-.88.8.8,0,0,0-1,.38c-.53.93-1.25,1.74-1.71,2.72-.67,1.43-1.42,2.82-2.22,4.19a6,6,0,0,1,1.3-5.38,11.87,11.87,0,0,0,2-4.4,4.36,4.36,0,0,0,.15-.89,1.89,1.89,0,0,0-1-2,1.68,1.68,0,0,0-1.91.35c-.42.3-.83.6-1.27.87-.25.16-.53.32-.83.07s-.21-.51-.11-.82.67-.86.11-1.26-.87.18-1.24.42a34.75,34.75,0,0,0-14,17.41,2.84,2.84,0,0,1-.65,1.31,2.38,2.38,0,0,1-.49-2.71,34.44,34.44,0,0,1,12.14-15.88c.71-.51,1.41-1,1.4-2-.33-.27-.67-.06-1-.06a6.6,6.6,0,0,1-2.3-.26c-1.33-.49-2.67-.95-4-1.52a15,15,0,0,1-6-5.15c-1-1.33-1.77-2.75-2.62-4.15a21.13,21.13,0,0,0-2.68-3.63c-.6-.62-.81-.56-1.15.26a4.16,4.16,0,0,0-.19,1.4,1.92,1.92,0,0,1-.8,1.65,10.61,10.61,0,0,0-4.23-4.37,2.37,2.37,0,0,1-.17-3.48c.76-.75.87-1.27.26-2a117.44,117.44,0,0,1-7.12-10.6c-1.35-2.1-2.65-4.24-4-6.35-.43.1-.26.42-.26.63,0,6.21,0,12.41,0,18.62a3.54,3.54,0,0,0,2.36,3.5,4.49,4.49,0,0,0,.73.25,11.22,11.22,0,0,1,7.15,5.72,24.07,24.07,0,0,1,1.25,2.55,16.48,16.48,0,0,0,5,6.6l.4.31c.62.52,1.15,1.1.9,2a2.29,2.29,0,0,1-1.86,1.77,5.93,5.93,0,0,1-4.37-.68c-.61-.4-1.2-.84-1.81-1.24a1.81,1.81,0,0,0-1-.44,8.48,8.48,0,0,0,1.18,7.8,9.81,9.81,0,0,0,1.51,1.58,16.79,16.79,0,0,1,2.67,3,2,2,0,0,1,.31,2.39,2.3,2.3,0,0,1-2.4,1.18,11.8,11.8,0,0,1-4.25-1.42,26.19,26.19,0,0,1-9.51-8.75,21.77,21.77,0,0,1-3.84-9.84,47.29,47.29,0,0,1,0-6.07c.06-5.52.16-11,.25-16.55q.27-15.69.56-31.4c0-1,0-2,0-3.25a5.06,5.06,0,0,0-2,1.82c-.51.8-1,1.63-1.45,2.44a9.92,9.92,0,0,1-1.76,2.36,7.06,7.06,0,0,1,.34-3.25c.46-1.61,1-3.19,1.53-4.79a6.71,6.71,0,0,0,.43-2.4,4.42,4.42,0,0,0-1.84.73,20.23,20.23,0,0,0-7.27,6.82,36,36,0,0,0-5.13,12.59c-.27,1.25-.59,2.49-.88,3.74-.45-.17-.38-.51-.43-.79a14.31,14.31,0,0,1,.39-5.64,34.5,34.5,0,0,1,4.83-10.92c2.16-3.22,4.53-6.29,6.78-9.45.9-1.26,1.83-2.5,2.72-3.77.47-.68.94-1.41.31-2.24a2,2,0,0,0-2.32-.7,37.9,37.9,0,0,0-4.8,1.88,14.07,14.07,0,0,1-3.52,1.26,6.79,6.79,0,0,1,2.19-1.89c1.15-.75,2.38-1.38,3.49-2.21a6.42,6.42,0,0,0,2.3-3c.4-1.12.1-1.41-.83-2a3.67,3.67,0,0,0-2-.35A4.85,4.85,0,0,1,40,94.87,2.76,2.76,0,0,1,41.76,93c.66-.31,1.37-.51,2-.81C46.49,91,47,89.3,45.3,86.84c-.73-1.07-1.55-2.07-2.3-3.12a9.3,9.3,0,0,1-1.53-3,2.37,2.37,0,0,1,1.6.25,11.05,11.05,0,0,1,2.83,1.52,18.65,18.65,0,0,0,3.57,2.05,9.22,9.22,0,0,0,1.34.46A1.61,1.61,0,0,0,53,83.66a9.58,9.58,0,0,0,.36-2.55c.11-4.31,0-8.62-.16-12.93a2.84,2.84,0,0,1,1.37-3,31.17,31.17,0,0,1,0,4.42c0,4.06,0,8.1,1.36,12,.19.57.41,1.13.63,1.69a3.47,3.47,0,0,0,.31.44c.33-.61.61-1.16.9-1.7a60,60,0,0,1,9.37-13.56,50.86,50.86,0,0,1,4.1-3.94c.72-.63.66-.83-.26-1.14a6.84,6.84,0,0,0-1.91-.22,2.06,2.06,0,0,1-2-1.31c1.42-.35,2.78,0,4.13,0a11.25,11.25,0,0,0,4.08-.37c.08-.47-.33-.57-.57-.76-1.65-1.32-3.32-2.61-5-3.9a26.55,26.55,0,0,1-8.65-12.14,17.26,17.26,0,0,1-.92-5.06,3.4,3.4,0,0,1,1.45,1.82c.31.7.51,1.46.77,2.18A27.06,27.06,0,0,0,74.23,58.11a19.93,19.93,0,0,1,2.53,1.55,1,1,0,0,0,.34.17.69.69,0,0,0,.8-.26c.24-.31.12-.55-.12-.78s-.68-.67-1-1a4.52,4.52,0,0,1-1-1.63c-.17-.49.11-.64.51-.64s.84.38,1.15.74.67,1.14,1.27.9.32-1,.34-1.53,0-.78,0-1.16a1.41,1.41,0,0,1,1-1.35,1.26,1.26,0,0,1,1.46.54A6.32,6.32,0,0,0,83,55.23,54.84,54.84,0,0,1,95.08,37.35c-4,.33-7.63,2-11.25,3.66a4.13,4.13,0,0,1,2.78-2.82c1.91-.77,3.82-1.55,5.81-2.13l4-1.14c0-.48-.39-.44-.63-.53a12.49,12.49,0,0,0-3.93-.64,28.33,28.33,0,0,1-4.12-.27,6,6,0,0,1-4.59-3.19,3.29,3.29,0,0,1,1.35.59,11,11,0,0,0,7.46,1.33A11.24,11.24,0,0,0,97,29.57c1.25-1.11,1.28-2.09.11-3.31-.62-.66-1.33-1.23-2-1.87a6.33,6.33,0,0,1-1.86-4.54c.44-.13.52.25.68.45.83,1,1.63,2.12,2.46,3.16a11.69,11.69,0,0,0,3.4,2.94,4.26,4.26,0,0,0,.81.38c1.19.36,2.15-.37,2-1.57a12.85,12.85,0,0,1,.66-5.6c.11.51.17.76.21,1a6.48,6.48,0,0,1,.08.77,10.6,10.6,0,0,0,.58,2.9,2,2,0,0,0,3.37,1,4.74,4.74,0,0,0,1.16-1.54c1.36-2.49,2.72-5,4.14-7.6a4.36,4.36,0,0,1,0,2.92,11.11,11.11,0,0,1-1.64,3.48,11.42,11.42,0,0,0-1.42,2.89,3.39,3.39,0,0,0-.11,1.78c.38,1.54,1.13,2.8,3.24,1.89a11.63,11.63,0,0,1,3.4-.65,76.47,76.47,0,0,1,9.79-.7,29.51,29.51,0,0,1,5.64.61,4.78,4.78,0,0,0,6-4.47,10.41,10.41,0,0,0-.42-4,9.71,9.71,0,0,1-.58-2.77,3.85,3.85,0,0,1,.4-1.91,2.2,2.2,0,0,1,1.1,1.52,9.06,9.06,0,0,1,.3,1.65,8.83,8.83,0,0,0,1.84,4.34c.95,1.24,2,1.35,3.24.43a10.86,10.86,0,0,0,2.62-2.83c.81-1.17,1.55-2.39,2.29-3.6a29.12,29.12,0,0,1,2.43-3.5c.32-.38.68-.74,1.05-1.13a1.6,1.6,0,0,1-.08,2.3,20.2,20.2,0,0,0-2,3,16.74,16.74,0,0,0-2,7.15,4.48,4.48,0,0,0,.1,1.15,1.9,1.9,0,0,0,2,1.77,9.48,9.48,0,0,0,2.8-.4c2.51-.6,4.94-1.48,7.47-2a20.3,20.3,0,0,1,5.38-.42,1.24,1.24,0,0,1-.85.54c-1.61.45-3.24.86-4.85,1.32A10.51,10.51,0,0,0,155.24,29c-.18.17-.44.29-.43.7a15.49,15.49,0,0,0,4.24.64,38.3,38.3,0,0,1,5.65.53,7.89,7.89,0,0,1,3.82,1.74,35.09,35.09,0,0,0-6.47-.45,20,20,0,0,0-6.32,1.37,4.17,4.17,0,0,0,2,1.66c1,.6,2.15,1.09,3.21,1.67a8.39,8.39,0,0,1,2.55,2,18.44,18.44,0,0,1-4-1,15.08,15.08,0,0,0-3.37-.82,4.34,4.34,0,0,0-1.7.1c-.17.29,0,.4.11.52a88.49,88.49,0,0,1,10,14.41c.23.42.33,1.07,1,1.07s.7-.69,1-1.1a22.55,22.55,0,0,1,1.31-2.36,1.76,1.76,0,0,1,2.15-.74,1.32,1.32,0,0,1,1.06,1.54,6.2,6.2,0,0,1-.45,1.74c-.09.29-.2.57-.28.86-.12.45-.33.94.15,1.31a1.73,1.73,0,0,0,1.78-.32,1.59,1.59,0,0,0,.15-.21c2.41-3.4,5.83-5.1,9.82-5.88,2.54-.5,5.12-.68,7.68-1a14.8,14.8,0,0,0,4.39-1,4.7,4.7,0,0,1,3.22-.22c0,.51-.38.54-.61.68a18.14,18.14,0,0,1-6.61,2.06c-2.9.41-5.84.46-8.72,1a7.92,7.92,0,0,0-2.87.9c5.45,2.1,10.84,1.07,16.4.08a2,2,0,0,1-.88.62,19.78,19.78,0,0,1-7.13,2.1,12.57,12.57,0,0,1-3.72-.29,13.12,13.12,0,0,0-5.11-.41c-3.15.52-5.22,2.45-6.85,5-.29.45-.14.71.24,1a4.91,4.91,0,0,0,1.33.47c.5.13,1,.21,1.51.36,1.51.45,1.83,1.23,1,2.62-.31.56-.71,1.07-1.14,1.71a35.28,35.28,0,0,1,14.45,21.89,10,10,0,0,0,1.95-2.43,11.47,11.47,0,0,1,1.76-2.22,3.25,3.25,0,0,1,1.65-1,2.45,2.45,0,0,1-.61,2.19,16.44,16.44,0,0,1-1.14,1.23,4.21,4.21,0,0,0-1.06,4.4,8.74,8.74,0,0,0,.78,1.77,1.81,1.81,0,0,0,2.13,1,7,7,0,0,0,2.62-1.06c3.11-2,6.14-4.13,9.13-6.31a2.74,2.74,0,0,1,3.22-.43c-5,3.44-10,6.77-13.39,12.14a16.2,16.2,0,0,0,6.37.26,51.22,51.22,0,0,1,6.3-.58,8.09,8.09,0,0,1,2.9.5A41,41,0,0,0,204,97c-2.4.91-4.73,2-7.18,3.14a13.82,13.82,0,0,0,3.41,1.82,58.48,58.48,0,0,0,5.92,1.8,26.1,26.1,0,0,1,4.37,1.55c.3.15.66.21.88.65a29.64,29.64,0,0,0-12.83,1.53,6.45,6.45,0,0,0,2.76,1.73c1.66.59,3.35,1.09,5.05,1.55a18,18,0,0,1,10,6.27c.1.14.18.29.28.43Zm-63.56,55.41c.1-.47.51-.83.5-1.34a13.6,13.6,0,0,0,2.76-1.07,30.46,30.46,0,0,0,11.78-8.33,23.14,23.14,0,0,0,4.72-9.07,5.46,5.46,0,0,1,1.71-2.82,29.39,29.39,0,0,1,2.55-1.74c2.18-1.51,2.56-2.35,2-4.62a2.2,2.2,0,0,1,.67-2.23l2.11-2.09a23.8,23.8,0,0,0,5.26-8c.54-1.36,1-2.74,1.65-4.06s1.58-1.53,2.88-.89c.49.24.81.77,1.47.88a5,5,0,0,0-1-4.53,6.38,6.38,0,0,1-1.56-3.2c-.18-1-.39-2.1-.61-3.15a3.76,3.76,0,0,1,1.13-3.64c1.43-1.42,2.28-1.23,2.94.68.6,1.72,1.82,3.11,2.45,4.81a1.05,1.05,0,0,0,1.49.61,25,25,0,0,1,3.36-1.45c.47-.1.45-.57.08-.91a8.42,8.42,0,0,0-.77-.69,18.58,18.58,0,0,0-2.16-1.4c-1.39-.72-1.62-1.38-1.09-2.83.2-.57.47-1.11.64-1.69a1.75,1.75,0,0,0-.35-1.8c-.93-1-.82-1.44.34-2.19a29.82,29.82,0,0,0,2.86-1.64,1.36,1.36,0,0,0-.63-.7,31.74,31.74,0,0,1-3.23-2.55c-1.19-1.19-1.17-1.65-.08-3.09.32-.43.85-.7,1-1.26a3.53,3.53,0,0,0-1.55-.35,2.53,2.53,0,0,1-1.24-.3,1.29,1.29,0,0,1-.81-1.78c.15-.62.36-1.23.53-1.85.21-.78.11-.93-.68-1-.56,0-1.12,0-1.68,0-1.35-.11-2.3-.72-2.32-2,0-1.53-.64-2.09-2-2.13-.62,0-.88-.37-1-1-.12-.93-.3-1.86-.51-2.77a25.27,25.27,0,0,0-4.32-10.12,12.66,12.66,0,0,0-3.37-3.51A12.35,12.35,0,0,0,174,65.57a10.11,10.11,0,0,1-1.93-1.28c-1-.92-.88-1.64.17-2.44.35-.27.86-.38,1.06-.9a3.07,3.07,0,0,0-2.14-.84c-.43,0-.86,0-1.29,0a1.59,1.59,0,0,1-1.67-1.72c0-.34-.09-.68-.13-1-.19-1.46-.69-2.9,0-4.4-.56.06-.67.43-.79.73-.21.52-.32,1.08-.54,1.59a1.17,1.17,0,0,1-2,.48,3.2,3.2,0,0,1-1-1.36,43.07,43.07,0,0,0-3.43-6.06c-2.74-4.29-5.59-8.49-9.56-11.78a1.37,1.37,0,0,1-.38-.51c-.32-.74,0-1.23.84-1.23.34,0,.69,0,1,0a2,2,0,0,0,2-1.18,2.14,2.14,0,0,0-.34-2.41,5,5,0,0,0-3.9-2.19A4,4,0,0,1,146,25.42c-.17-1.06-.19-1.11-1.29-1-3.64.38-6.75,1.75-8.72,5a1.77,1.77,0,0,1-2.05.93,9.62,9.62,0,0,1-1.47-.46,3.08,3.08,0,0,0-1.11-.32c-1.55,0-3.09-.12-4.64-.21-2.58-.15-5.15.25-7.73.27a24.64,24.64,0,0,0-2.94.38c-1.41.17-2.78.55-4.17.78-1.8.3-2.93.06-3.15-1.68a1.45,1.45,0,0,0-.19-.47,2.3,2.3,0,0,0-2.25-1.42,24.24,24.24,0,0,0-2.42.31c-3.35.36-5.56,2.46-7.5,4.93.38.59,1,.69,1.41,1.05a2.07,2.07,0,0,1,.35,3.16,16.2,16.2,0,0,1-1.34,1.41c-1.72,1.69-3.47,3.34-5,5.19A39.65,39.65,0,0,0,84.93,54.9,8.71,8.71,0,0,1,84,57c-.6.86-1.16.95-2.09.41-.32-.18-.55-.55-1.1-.49,0,.5,0,1,0,1.52a3,3,0,0,1-2,3.32,28,28,0,0,0-8.09,5.47A67.34,67.34,0,0,0,60.47,80a5.37,5.37,0,0,0-.58,1.55,9,9,0,0,1-.75,2.59,5.82,5.82,0,0,0-1.34,1.28,3.87,3.87,0,0,1-2.34-.54c-.91-.49-.93-.47-1.54.3a3.16,3.16,0,0,1-2.8,1.29A6.93,6.93,0,0,1,49,86a11.46,11.46,0,0,0-2.9-1,.76.76,0,0,0,.18.66,9.23,9.23,0,0,1,1.22,2.27c.53,1.57.5,3.06-.86,4.26l-1.06,1c-.58.52-.57.69.07,1.17a5,5,0,0,0,.54.35,1.91,1.91,0,0,1,1,1.81,5,5,0,0,1-.31,2.14c-.39.9-.28,1.07.62,1.44a5.58,5.58,0,0,1,1.37.71,2,2,0,0,1,.76,2.9,13.94,13.94,0,0,1-2.18,3.79,1.69,1.69,0,0,0-.38,2c.28.1.46,0,.66-.11,1.3-.47,2-.12,2.26,1.21a3.6,3.6,0,0,1-.11,1.78c-.16.62.14.89.76.81.26,0,.5-.15.76-.18a2,2,0,0,1,2.48,1.49c.25.68.42,1.4.62,2.1-.15,2.27-.37,4.54-.33,6.83a12.6,12.6,0,0,0,.62,3.66,83.7,83.7,0,0,0,6.43,14.76A77.16,77.16,0,0,0,72.51,156.9c1.31,1.41,2.52,2.92,3.75,4.41,1.82,2.19,3,4.83,4.89,7,3,3.36,6.53,5.54,11.29,4.9a3.69,3.69,0,0,1,1.28.06c1.58.35,3.13.83,4.75,1.05a3,3,0,0,1,2.81,3.28,3.91,3.91,0,0,0,.13,1,4.82,4.82,0,0,0,3.9,3.52,33,33,0,0,0,3.78.79c1.81.23,2.69-.51,2.53-2.27a3,3,0,0,0-.05-.52c-.19-1-.4-1.93-.6-2.9-.4-1.95-.1-3.68,1.64-4.93a10.14,10.14,0,0,1,3.18-1.85,2.26,2.26,0,0,0,0,2.77,7.57,7.57,0,0,0,.57.7,3.37,3.37,0,0,1,1,3.15,3.7,3.7,0,0,0,.8,3,23.31,23.31,0,0,0,3.22,3.14c.76.72,1.45.63,2.32,0,.48-.37.93-.77,1.4-1.15.67-.56,1.37-.92,2.2-.32.36.26.55.09.69-.23.07-.16.12-.33.2-.48.83-1.75,1.89-2.07,3.51-1a3.85,3.85,0,0,1,.52.38c.49.39,1,.79,1.65,1.35,0-1.71.19-3.19-.36-4.64-.47-1.21-.61-1.29-1.75-.69a6,6,0,0,1-1.49.76c-.28.06-.51.06-.68-.18a.54.54,0,0,1,.08-.71,9.88,9.88,0,0,1,.92-.91,24.35,24.35,0,0,0,4.06-4.12c.53-.7,1-1.41,1.56-2.16a1.9,1.9,0,0,1-.12,2.47,5.66,5.66,0,0,0-.68,1.09,1.44,1.44,0,0,0,.41,1.84,2.79,2.79,0,0,0,1,.52,11.86,11.86,0,0,1,5.86,4.23c1.14,1.43,1.21,1.43,2-.16.74-1.42,1.69-1.69,3.05-.83.62.39,1.21.83,1.82,1.24a2.14,2.14,0,0,0,1.32.44c.64,0,.8-.18.64-.77a4.46,4.46,0,0,0-.61-1.42,3.73,3.73,0,0,1-.44-.78,1.42,1.42,0,0,1,.26-1.57,1.05,1.05,0,0,1,1.31-.13,3.3,3.3,0,0,0,1.64.25c.5-.06.59-.27.25-.67S153,173.94,152.89,173.23Zm24.37,51.9a2.6,2.6,0,0,0-.92-2.06,13.29,13.29,0,0,0-5.24-3.17,21.18,21.18,0,0,0-7.56-.43c-3,.19-6.06.66-9.09.94-3.58.34-7.16.78-10.72,1.28-.83.12-1.67.14-2.52.2a1.66,1.66,0,0,1,.49-1.1c.91-1.2.85-1.51-.52-2.24a9.68,9.68,0,0,1-2.87-2.37,13.54,13.54,0,0,1-1.7-2.89c-.36-.76-.81-1.54-1.73-1.54s-1.32.73-1.77,1.37a1.86,1.86,0,0,0-.19.34c-.42.84-.87,1.68-1.25,2.54-.69,1.57-1.39,3.15-2,4.75-.41,1.07,0,1.75,1.13,2a5.37,5.37,0,0,0,.9.05c.56,0,1.11.06,1.67.14a20.2,20.2,0,0,1,8.73,3.64c1.85,1.33,3.63,2.76,5.46,4.11a29.37,29.37,0,0,0,9.31,4.65,19.73,19.73,0,0,0,8.68.42,28.81,28.81,0,0,0,7.81-2.59,22.2,22.2,0,0,0,3.9-2.25c1.67-1.28,2.34-3.42.09-5.4-.92,1.3-1.27,1.42-2.8.95l-.25-.07a13.77,13.77,0,0,0-7-.17,3.34,3.34,0,0,0-2.69,2.65,7.26,7.26,0,0,0-.11,2.82,1.59,1.59,0,0,1-.55,1.62,6.37,6.37,0,0,1-1.16-4.17,4.21,4.21,0,0,1,1.95-3.57,7.14,7.14,0,0,1,4.14-1.22C171.64,224.29,174.44,224.15,177.26,225.13ZM116.43,211c-.12,0-.18,0-.19.06-1.2,2.54-3.06,4.79-3.33,7.76-.11,1.18-.68,1.58-1.81,1.61a45.05,45.05,0,0,1-9.63-.64c-3.59-.69-7.09-1.7-10.64-2.54-5.34-1.25-9.76.34-13.33,4.39a7.53,7.53,0,0,0-1.67,2.54c.15.07.22.15.29.14a30.51,30.51,0,0,1,9.17,1.11c3.43.77,4.33,2.38,4.09,5.38a2.49,2.49,0,0,1-2.58,2.37c.24-.77.52-1.48.68-2.22.42-2-.22-2.74-1.55-3.36a19.14,19.14,0,0,0-7.36-1.68,20.35,20.35,0,0,0-2.59,0,1.46,1.46,0,0,0-1.49,1.92,8.08,8.08,0,0,0,3.3,5.07,12.13,12.13,0,0,0,9.75,1.68,89.55,89.55,0,0,0,9.92-2.79c7.14-2.37,14.13-5.19,21.31-7.46a3.39,3.39,0,0,0,.91-.46,1.83,1.83,0,0,0,.67-2.58,16.19,16.19,0,0,1-.71-1.52c-.91-2.14-1.51-4.39-2.3-6.57A10.62,10.62,0,0,0,116.43,211Zm-44.1-33.8c-.21-.41-.26-.57-.36-.71a21.22,21.22,0,0,0-2.77-3.22,7.64,7.64,0,0,1-2-2.85,27.13,27.13,0,0,0-1.76-3.74,10.3,10.3,0,0,0-7.19-5.59A3.91,3.91,0,0,1,56,159.75q-.39-.44-.81-.84a2.28,2.28,0,0,0-.61-.46c-.74-.32-1.29,0-1.63,1a19.27,19.27,0,0,0-1,5.3,41.58,41.58,0,0,0,.47,10.8A15.38,15.38,0,0,0,53.9,180a3.42,3.42,0,0,0,2.45,1.9,6.7,6.7,0,0,1,2.23,1,15.36,15.36,0,0,1,3.81,3.82A14.38,14.38,0,0,0,67,190.4a3.32,3.32,0,0,0,.71.29,1.13,1.13,0,0,0,1.35-.51,1,1,0,0,0-.31-1.37c-.49-.41-1-.8-1.54-1.17a10.08,10.08,0,0,1-3.94-7c-.49-3,.14-6-.09-9.08a3,3,0,0,1,1.1,1,17.84,17.84,0,0,0,3.12,3.26A7.36,7.36,0,0,0,72.33,177.19Zm102.57-2.86c2.83.39,4.95-.25,6.45-2.46.38-.57.77-1.14,1.18-1.69,1.27-1.66,2.82-2.75,5.06-2.52,1,.1.94.06,1.14,1a10.11,10.11,0,0,1,.2,2c0,2.88,0,5.76-.23,8.64-.13,1.37,0,2.74-.22,4.12a10.67,10.67,0,0,0,0,3.09,28.25,28.25,0,0,0,.37,3.5,6.31,6.31,0,0,0,1.88-3.47,57.55,57.55,0,0,1,3.65-12.6,37.19,37.19,0,0,0,1.57-3.81,31.16,31.16,0,0,0,1.09-5.81c.29-2.67.12-5.33.15-8,0-.69-.35-1-1-.77-2.23.65-4.55.84-6.8,1.43a8.77,8.77,0,0,0-5.87,4.65c-.88,1.72-1.75,3.45-2.58,5.21A18.79,18.79,0,0,1,174.9,174.33Zm7.89-28.62c.76.25.76.25,1.25-.17C183.61,145.5,183.2,145.38,182.79,145.71Z"/><path class="cls-2" d="M216.45,117.82l.17-.31a1,1,0,0,1,.5.78A.87.87,0,0,1,216.45,117.82Z"/><path class="cls-2" d="M54.52,116.47c-.2-.7-.37-1.42-.62-2.1a2,2,0,0,0-2.48-1.49c-.26,0-.5.14-.76.18-.62.08-.92-.19-.76-.81a3.6,3.6,0,0,0,.11-1.78c-.31-1.33-1-1.68-2.26-1.21-.2.07-.38.21-.66.11a1.69,1.69,0,0,1,.38-2,13.94,13.94,0,0,0,2.18-3.79,2,2,0,0,0-.76-2.9,5.58,5.58,0,0,0-1.37-.71c-.9-.37-1-.54-.62-1.44a5,5,0,0,0,.31-2.14,1.91,1.91,0,0,0-1-1.81,5,5,0,0,1-.54-.35c-.64-.48-.65-.65-.07-1.17l1.06-1c1.36-1.2,1.39-2.69.86-4.26a9.23,9.23,0,0,0-1.22-2.27.76.76,0,0,1-.18-.66A11.46,11.46,0,0,1,49,86a6.93,6.93,0,0,0,2.11.56,3.16,3.16,0,0,0,2.8-1.29c.61-.77.63-.79,1.54-.3a3.87,3.87,0,0,0,2.34.54,1.72,1.72,0,0,0,1.34-1.28,9,9,0,0,0,.75-2.59A5.37,5.37,0,0,1,60.47,80,67.34,67.34,0,0,1,70.68,67.25a28,28,0,0,1,8.09-5.47,3,3,0,0,0,2-3.32c0-.51,0-1,0-1.52.55-.06.78.31,1.1.49.93.54,1.49.45,2.09-.41a8.71,8.71,0,0,0,.93-2.12,39.65,39.65,0,0,1,6.86-11.62c1.56-1.85,3.31-3.5,5-5.19a16.2,16.2,0,0,0,1.34-1.41,2.07,2.07,0,0,0-.35-3.16c-.42-.36-1-.46-1.41-1.05,1.94-2.47,4.15-4.57,7.5-4.93a24.24,24.24,0,0,1,2.42-.31,2.3,2.3,0,0,1,2.25,1.42,1.45,1.45,0,0,1,.19.47c.22,1.74,1.35,2,3.15,1.68,1.39-.23,2.76-.61,4.17-.78a24.64,24.64,0,0,1,2.94-.38c2.58,0,5.15-.42,7.73-.27,1.55.09,3.09.25,4.64.21a3.08,3.08,0,0,1,1.11.32,9.62,9.62,0,0,0,1.47.46,1.77,1.77,0,0,0,2.05-.93c2-3.26,5.08-4.63,8.72-5,1.1-.11,1.12-.06,1.29,1A4,4,0,0,0,150.09,29a5,5,0,0,1,3.9,2.19,2.14,2.14,0,0,1,.34,2.41,2,2,0,0,1-2,1.18c-.34,0-.69,0-1,0-.82,0-1.16.49-.84,1.23a1.37,1.37,0,0,0,.38.51c4,3.29,6.82,7.49,9.56,11.78a43.07,43.07,0,0,1,3.43,6.06,3.2,3.2,0,0,0,1,1.36,1.17,1.17,0,0,0,2-.48c.22-.51.33-1.07.54-1.59.12-.3.23-.67.79-.73-.71,1.5-.21,2.94,0,4.4,0,.34.1.68.13,1a1.59,1.59,0,0,0,1.67,1.72c.43,0,.86,0,1.29,0a3.07,3.07,0,0,1,2.14.84c-.2.52-.71.63-1.06.9-1,.8-1.12,1.52-.17,2.44A10.11,10.11,0,0,0,174,65.57a12.35,12.35,0,0,1,4.88,4.84c-.19,1.57.21,3.13,0,4.72-.14,1,0,2.05-.29,3.06a12.15,12.15,0,0,1-2.92,6.2c-.7.71-.61,1.46.11,2.27,2,2.24,3.34,4.76,3.09,7.91a8,8,0,0,1-1.43,4.07,14.83,14.83,0,0,1-3.36,3.35,42.56,42.56,0,0,1-5.45,3.86,15.49,15.49,0,0,0-2.68,1.76,4.76,4.76,0,0,0-1.84,3.69c0,1,0,1.9,0,2.84a3.75,3.75,0,0,1-.67,2.31,11.7,11.7,0,0,1-3.76,3.65,29.25,29.25,0,0,1-8.74,3.7,42.18,42.18,0,0,1-8.14,1,5.43,5.43,0,0,1-.9,0c-1.82-.24-3.65-.43-5.49-.5a5.41,5.41,0,0,0-3.68,1.3c-.56.46-1.13.93-1.67,1.41a43.4,43.4,0,0,1-10.49,6.93,22.86,22.86,0,0,1-11,2.32,17.81,17.81,0,0,1-8.33-2.76,42.82,42.82,0,0,1-6.29-5.09,39.29,39.29,0,0,1-6.36-7.25,4.84,4.84,0,0,0-.77-.86,2.09,2.09,0,0,0-2.26-.51,8.3,8.3,0,0,0-1.2.47,39.47,39.47,0,0,1-6.94,2.75A24.27,24.27,0,0,1,70.83,124a17.58,17.58,0,0,1-3.32-.28,20.86,20.86,0,0,1-6.87-2.41,22.55,22.55,0,0,1-4.91-3.94C55.39,117,55.1,116.53,54.52,116.47Zm72.09-73.95c.42-.17.65-.55,1-.84a3,3,0,0,1,3.65-.62,10.91,10.91,0,0,1,2.18,1.36c.44.35.91.68,1.55,1.15a5.22,5.22,0,0,0-2-3.88,4.12,4.12,0,0,0-4.27-.44,3.27,3.27,0,0,0-2,3.28l-.1,0s0,0,0,.07Zm36.72,34a4.85,4.85,0,0,0-1-2.13,1.63,1.63,0,0,0-2.46-.5,16.26,16.26,0,0,0-2.1,1.7,56.2,56.2,0,0,1-20.11,10.8,11,11,0,0,1-6.45.17,37.7,37.7,0,0,0-8.93-1.09c-3-.13-6,.24-9,.27a15.58,15.58,0,0,1-6.61-1.46c-3.49-1.58-7-3.1-10.51-4.64-2.48-1.09-4.9-2.32-7.45-3.24-.59-.22-.83-.58-.57-1.2a3.06,3.06,0,0,0,.17-.48c.17-.7,0-.86-.64-.93a2.63,2.63,0,0,0-2.94,3.06c.08.93.32,1.27,1.16,1.06a7.13,7.13,0,0,1,5,.92c1.24.6,2.37,1.41,3.6,2,5.75,2.87,11.62,5.43,18.06,6.29a22.53,22.53,0,0,0,6.41.24,37.54,37.54,0,0,1,3.84-.39,20.71,20.71,0,0,1,7,.94,14.67,14.67,0,0,0,7.5.19,44.2,44.2,0,0,0,9.41-3.51,60.16,60.16,0,0,0,11.87-7.5c1.46-1.17,2.91-1.6,4.59-.53C163.11,76.58,163.16,76.55,163.33,76.51ZM123,52.28a8.65,8.65,0,0,0-.55-3.21,3.5,3.5,0,0,0-3.5-2.54,3.67,3.67,0,0,0-3.62,2,8.83,8.83,0,0,0-.16,7.72A3.88,3.88,0,0,0,119,58.54a3.36,3.36,0,0,0,3.2-2.19A8.32,8.32,0,0,0,123,52.28Zm2.32.48a13.28,13.28,0,0,0,0,1.67A4.52,4.52,0,0,0,127,57.94a4.29,4.29,0,0,0,5.67-1.36,9.31,9.31,0,0,0,0-8.65,2.66,2.66,0,0,0-2.28-1.49,4.31,4.31,0,0,0-4.79,3.25A9.31,9.31,0,0,0,125.34,52.76Zm-11.25-7.3a6.54,6.54,0,0,0,2-1.57c1.61-1.44,3.34-2.62,5.74-2.27C118.64,39.12,114.64,40.93,114.09,45.46Z"/><path class="cls-3" d="M54.52,116.47c.58.06.87.54,1.21.9a22.55,22.55,0,0,0,4.91,3.94,20.86,20.86,0,0,0,6.87,2.41,17.58,17.58,0,0,0,3.32.28,24.27,24.27,0,0,0,6.57-1.07,39.47,39.47,0,0,0,6.94-2.75,8.3,8.3,0,0,1,1.2-.47,2.09,2.09,0,0,1,2.26.51,4.84,4.84,0,0,1,.77.86,39.29,39.29,0,0,0,6.36,7.25,42.82,42.82,0,0,0,6.29,5.09,17.81,17.81,0,0,0,8.33,2.76,22.86,22.86,0,0,0,11-2.32,43.4,43.4,0,0,0,10.49-6.93c.54-.48,1.11-1,1.67-1.41a5.41,5.41,0,0,1,3.68-1.3c1.84.07,3.67.26,5.49.5a5.43,5.43,0,0,0,.9,0,42.18,42.18,0,0,0,8.14-1,29.25,29.25,0,0,0,8.74-3.7,11.7,11.7,0,0,0,3.76-3.65,3.75,3.75,0,0,0,.67-2.31c-.06-.94,0-1.89,0-2.84a4.76,4.76,0,0,1,1.84-3.69,15.49,15.49,0,0,1,2.68-1.76,42.56,42.56,0,0,0,5.45-3.86,14.83,14.83,0,0,0,3.36-3.35,8,8,0,0,0,1.43-4.07c.25-3.15-1.06-5.67-3.09-7.91-.72-.81-.81-1.56-.11-2.27a12.15,12.15,0,0,0,2.92-6.2c.24-1,.15-2,.29-3.06.23-1.59-.17-3.15,0-4.72a12.66,12.66,0,0,1,3.37,3.51A25.27,25.27,0,0,1,186.59,84c.21.91.39,1.84.51,2.77.08.62.34,1,1,1,1.4,0,2,.6,2,2.13,0,1.25,1,1.86,2.32,2,.56,0,1.12,0,1.68,0,.79,0,.89.19.68,1-.17.62-.38,1.23-.53,1.85a1.29,1.29,0,0,0,.81,1.78,2.53,2.53,0,0,0,1.24.3,3.53,3.53,0,0,1,1.55.35c-.2.56-.73.83-1,1.26-1.09,1.44-1.11,1.9.08,3.09a31.74,31.74,0,0,0,3.23,2.55,1.36,1.36,0,0,1,.63.7,29.82,29.82,0,0,1-2.86,1.64c-1.16.75-1.27,1.15-.34,2.19a1.75,1.75,0,0,1,.35,1.8c-.17.58-.44,1.12-.64,1.69-.53,1.45-.3,2.11,1.09,2.83a18.58,18.58,0,0,1,2.16,1.4,8.42,8.42,0,0,1,.77.69c.37.34.39.81-.08.91a25,25,0,0,0-3.36,1.45,1.05,1.05,0,0,1-1.49-.61c-.63-1.7-1.85-3.09-2.45-4.81-.66-1.91-1.51-2.1-2.94-.68a3.76,3.76,0,0,0-1.13,3.64c.22,1,.43,2.1.61,3.15a6.38,6.38,0,0,0,1.56,3.2,5,5,0,0,1,1,4.53c-.66-.11-1-.64-1.47-.88-1.3-.64-2.26-.42-2.88.89s-1.11,2.7-1.65,4.06a23.8,23.8,0,0,1-5.26,8L179.59,142a2.2,2.2,0,0,0-.67,2.23c.55,2.27.17,3.11-2,4.62a29.39,29.39,0,0,0-2.55,1.74,5.46,5.46,0,0,0-1.71,2.82,23.14,23.14,0,0,1-4.72,9.07,30.46,30.46,0,0,1-11.78,8.33,13.6,13.6,0,0,1-2.76,1.07,4.14,4.14,0,0,0-.75.55c-.27.33-.33.69.25.79.1.71.7,1.05,1.1,1.55s.25.61-.25.67a3.3,3.3,0,0,1-1.64-.25,1.05,1.05,0,0,0-1.31.13,1.42,1.42,0,0,0-.26,1.57,3.73,3.73,0,0,0,.44.78,4.46,4.46,0,0,1,.61,1.42c.16.59,0,.75-.64.77a2.14,2.14,0,0,1-1.32-.44c-.61-.41-1.2-.85-1.82-1.24-1.36-.86-2.31-.59-3.05.83-.83,1.59-.9,1.59-2,.16a11.86,11.86,0,0,0-5.86-4.23,2.79,2.79,0,0,1-1-.52,1.44,1.44,0,0,1-.41-1.84,5.66,5.66,0,0,1,.68-1.09,1.9,1.9,0,0,0,.12-2.47c-.54.75-1,1.46-1.56,2.16a24.35,24.35,0,0,1-4.06,4.12,9.88,9.88,0,0,0-.92.91.54.54,0,0,0-.08.71c.17.24.4.24.68.18a6,6,0,0,0,1.49-.76c1.14-.6,1.28-.52,1.75.69.55,1.45.33,2.93.36,4.64-.68-.56-1.16-1-1.65-1.35a3.85,3.85,0,0,0-.52-.38c-1.62-1-2.68-.71-3.51,1-.08.15-.13.32-.2.48-.14.32-.33.49-.69.23-.83-.6-1.53-.24-2.2.32-.47.38-.92.78-1.4,1.15-.87.67-1.56.76-2.32,0a23.31,23.31,0,0,1-3.22-3.14,3.7,3.7,0,0,1-.8-3,3.37,3.37,0,0,0-1-3.15,7.57,7.57,0,0,1-.57-.7,2.26,2.26,0,0,1,0-2.77,10.14,10.14,0,0,0-3.18,1.85c-1.74,1.25-2,3-1.64,4.93.2,1,.41,1.93.6,2.9a3,3,0,0,1,.05.52c.16,1.76-.72,2.5-2.53,2.27a33,33,0,0,1-3.78-.79,4.82,4.82,0,0,1-3.9-3.52,3.91,3.91,0,0,1-.13-1,3,3,0,0,0-2.81-3.28c-1.62-.22-3.17-.7-4.75-1.05a3.69,3.69,0,0,0-1.28-.06c-4.76.64-8.3-1.54-11.29-4.9-1.9-2.13-3.07-4.77-4.89-7-1.23-1.49-2.44-3-3.75-4.41a77.16,77.16,0,0,1-11.27-15.18A83.7,83.7,0,0,1,54.81,127a12.6,12.6,0,0,1-.62-3.66C54.15,121,54.37,118.74,54.52,116.47Z"/><path class="cls-4" d="M177.26,225.13c-2.82-1-5.62-.84-8.4-.79a7.14,7.14,0,0,0-4.14,1.22,4.21,4.21,0,0,0-1.95,3.57,6.37,6.37,0,0,0,1.16,4.17,1.59,1.59,0,0,0,.55-1.62,7.26,7.26,0,0,1,.11-2.82,3.34,3.34,0,0,1,2.69-2.65,13.77,13.77,0,0,1,7,.17l.25.07c1.53.47,1.88.35,2.8-.95,2.25,2,1.58,4.12-.09,5.4a22.2,22.2,0,0,1-3.9,2.25,28.81,28.81,0,0,1-7.81,2.59,19.73,19.73,0,0,1-8.68-.42,29.37,29.37,0,0,1-9.31-4.65c-1.83-1.35-3.61-2.78-5.46-4.11a20.2,20.2,0,0,0-8.73-3.64c-.56-.08-1.11-.11-1.67-.14a5.37,5.37,0,0,1-.9-.05c-1.11-.23-1.54-.91-1.13-2,.62-1.6,1.32-3.18,2-4.75.38-.86.83-1.7,1.25-2.54a1.86,1.86,0,0,1,.19-.34c.45-.64.92-1.38,1.77-1.37s1.37.78,1.73,1.54a13.54,13.54,0,0,0,1.7,2.89,9.68,9.68,0,0,0,2.87,2.37c1.37.73,1.43,1,.52,2.24a1.66,1.66,0,0,0-.49,1.1c.85-.06,1.69-.08,2.52-.2,3.56-.5,7.14-.94,10.72-1.28,3-.28,6.05-.75,9.09-.94a21.18,21.18,0,0,1,7.56.43,13.29,13.29,0,0,1,5.24,3.17A2.6,2.6,0,0,1,177.26,225.13Z"/><path class="cls-4" d="M116.43,211a10.62,10.62,0,0,1,.91,2.2c.79,2.18,1.39,4.43,2.3,6.57a16.19,16.19,0,0,0,.71,1.52,1.83,1.83,0,0,1-.67,2.58,3.39,3.39,0,0,1-.91.46c-7.18,2.27-14.17,5.09-21.31,7.46a89.55,89.55,0,0,1-9.92,2.79,12.13,12.13,0,0,1-9.75-1.68,8.08,8.08,0,0,1-3.3-5.07A1.46,1.46,0,0,1,76,225.9a20.35,20.35,0,0,1,2.59,0,19.14,19.14,0,0,1,7.36,1.68c1.33.62,2,1.32,1.55,3.36-.16.74-.44,1.45-.68,2.22a2.49,2.49,0,0,0,2.58-2.37c.24-3-.66-4.61-4.09-5.38a30.51,30.51,0,0,0-9.17-1.11c-.07,0-.14-.07-.29-.14a7.53,7.53,0,0,1,1.67-2.54c3.57-4,8-5.64,13.33-4.39,3.55.84,7,1.85,10.64,2.54a45.05,45.05,0,0,0,9.63.64c1.13,0,1.7-.43,1.81-1.61.27-3,2.13-5.22,3.33-7.76C116.25,211,116.31,211,116.43,211Z"/><path class="cls-4" d="M72.33,177.19a7.36,7.36,0,0,1-4.93-1.34,17.84,17.84,0,0,1-3.12-3.26,3,3,0,0,0-1.1-1c.23,3.11-.4,6.09.09,9.08a10.08,10.08,0,0,0,3.94,7c.53.37,1.05.76,1.54,1.17a1,1,0,0,1,.31,1.37,1.13,1.13,0,0,1-1.35.51,3.32,3.32,0,0,1-.71-.29,14.38,14.38,0,0,1-4.61-3.67,15.36,15.36,0,0,0-3.81-3.82,6.7,6.7,0,0,0-2.23-1A3.42,3.42,0,0,1,53.9,180a15.38,15.38,0,0,1-1.48-4.52,41.58,41.58,0,0,1-.47-10.8,19.27,19.27,0,0,1,1-5.3c.34-1,.89-1.29,1.63-1a2.28,2.28,0,0,1,.61.46q.42.41.81.84a3.91,3.91,0,0,0,2.29,1.33,10.3,10.3,0,0,1,7.19,5.59,27.13,27.13,0,0,1,1.76,3.74,7.64,7.64,0,0,0,2,2.85A21.22,21.22,0,0,1,72,176.48C72.07,176.62,72.12,176.78,72.33,177.19Z"/><path class="cls-4" d="M174.9,174.33a18.79,18.79,0,0,0,6-7.45c.83-1.76,1.7-3.49,2.58-5.21a8.77,8.77,0,0,1,5.87-4.65c2.25-.59,4.57-.78,6.8-1.43.66-.2,1,.08,1,.77,0,2.67.14,5.33-.15,8a31.16,31.16,0,0,1-1.09,5.81,37.19,37.19,0,0,1-1.57,3.81,57.55,57.55,0,0,0-3.65,12.6,6.31,6.31,0,0,1-1.88,3.47,28.25,28.25,0,0,1-.37-3.5,10.67,10.67,0,0,1,0-3.09c.19-1.38.09-2.75.22-4.12.26-2.88.23-5.76.23-8.64a10.11,10.11,0,0,0-.2-2c-.2-.93-.18-.89-1.14-1-2.24-.23-3.79.86-5.06,2.52-.41.55-.8,1.12-1.18,1.69C179.85,174.08,177.73,174.72,174.9,174.33Z"/><path class="cls-5" d="M152.89,173.23c-.58-.1-.52-.46-.25-.79a4.14,4.14,0,0,1,.75-.55C153.4,172.4,153,172.76,152.89,173.23Z"/><path class="cls-3" d="M182.79,145.71c.41-.33.82-.21,1.25-.17C183.55,146,183.55,146,182.79,145.71Z"/><path class="cls-5" d="M59.14,84.18a1.72,1.72,0,0,1-1.34,1.28A5.82,5.82,0,0,1,59.14,84.18Z"/><path class="cls-1" d="M163.33,76.51c-.17,0-.22.07-.24.06-1.68-1.07-3.13-.64-4.59.53a60.16,60.16,0,0,1-11.87,7.5,44.2,44.2,0,0,1-9.41,3.51,14.67,14.67,0,0,1-7.5-.19,20.71,20.71,0,0,0-7-.94,37.54,37.54,0,0,0-3.84.39,22.53,22.53,0,0,1-6.41-.24c-6.44-.86-12.31-3.42-18.06-6.29-1.23-.61-2.36-1.42-3.6-2a7.13,7.13,0,0,0-5-.92c-.84.21-1.08-.13-1.16-1.06a2.63,2.63,0,0,1,2.94-3.06c.68.07.81.23.64.93a3.06,3.06,0,0,1-.17.48c-.26.62,0,1,.57,1.2,2.55.92,5,2.15,7.45,3.24,3.51,1.54,7,3.06,10.51,4.64a15.58,15.58,0,0,0,6.61,1.46c3,0,6-.4,9-.27a37.7,37.7,0,0,1,8.93,1.09,11,11,0,0,0,6.45-.17,56.2,56.2,0,0,0,20.11-10.8,16.26,16.26,0,0,1,2.1-1.7,1.63,1.63,0,0,1,2.46.5A4.85,4.85,0,0,1,163.33,76.51Z"/><path class="cls-1" d="M123,52.28a8.32,8.32,0,0,1-.87,4.07,3.36,3.36,0,0,1-3.2,2.19,3.88,3.88,0,0,1-3.76-2.28,8.83,8.83,0,0,1,.16-7.72,3.67,3.67,0,0,1,3.62-2,3.5,3.5,0,0,1,3.5,2.54A8.65,8.65,0,0,1,123,52.28Zm-2.37.51a14.83,14.83,0,0,0-.32-3.45,1.5,1.5,0,0,0-1.2-1.34,1.74,1.74,0,0,0-1.8.72,6.46,6.46,0,0,0-.54,6.79,3.48,3.48,0,0,0,1.12,1.23,1.58,1.58,0,0,0,2.49-1A11.14,11.14,0,0,0,120.65,52.79Z"/><path class="cls-1" d="M125.34,52.76a9.31,9.31,0,0,1,.26-3.07,4.31,4.31,0,0,1,4.79-3.25,2.66,2.66,0,0,1,2.28,1.49,9.31,9.31,0,0,1,0,8.65A4.29,4.29,0,0,1,127,57.94a4.52,4.52,0,0,1-1.64-3.51A13.28,13.28,0,0,1,125.34,52.76Zm2.08.58a17.64,17.64,0,0,0,.18,2.18,1.7,1.7,0,0,0,2.52,1.24,3.19,3.19,0,0,0,1.36-1.5,7.1,7.1,0,0,0,.76-3.23A4.75,4.75,0,0,0,131,48.6a1.68,1.68,0,0,0-2.6-.06,2,2,0,0,0-.66,1.35C127.63,51,127.53,52.19,127.42,53.34Z"/><path class="cls-1" d="M126.63,42.53a3.27,3.27,0,0,1,2-3.28,4.12,4.12,0,0,1,4.27.44,5.22,5.22,0,0,1,2,3.88c-.64-.47-1.11-.8-1.55-1.15a10.91,10.91,0,0,0-2.18-1.36,3,3,0,0,0-3.65.62c-.31.29-.54.67-1,.84Z"/><path class="cls-1" d="M114.09,45.46c.55-4.53,4.55-6.34,7.74-3.84-2.4-.35-4.13.83-5.74,2.27A6.54,6.54,0,0,1,114.09,45.46Z"/><path class="cls-1" d="M126.61,42.52l-.1.11s0-.06,0-.07l.1,0Z"/><path class="cls-5" d="M120.65,52.79a11.14,11.14,0,0,1-.25,2.94,1.58,1.58,0,0,1-2.49,1,3.48,3.48,0,0,1-1.12-1.23,6.46,6.46,0,0,1,.54-6.79,1.74,1.74,0,0,1,1.8-.72,1.5,1.5,0,0,1,1.2,1.34A14.83,14.83,0,0,1,120.65,52.79Z"/><path class="cls-5" d="M127.42,53.34c.11-1.15.21-2.3.36-3.45a2,2,0,0,1,.66-1.35,1.68,1.68,0,0,1,2.6.06,4.75,4.75,0,0,1,1.2,3.43,7.1,7.1,0,0,1-.76,3.23,3.19,3.19,0,0,1-1.36,1.5,1.7,1.7,0,0,1-2.52-1.24A17.64,17.64,0,0,1,127.42,53.34Z"/></svg>